<?xml version="1.0" standalone="no"?>
<!DOCTYPE svg PUBLIC "-//W3C//DTD SVG 1.1//EN" "http://www.w3.org/Graphics/SVG/1.1/DTD/svg11.dtd">
<svg width="100%" height="100%" version="1.1" xmlns="http://www.w3.org/2000/svg">

<rect x="20" y="20" width="220" height="40" stroke="black" stroke-width="2" fill="white"/>
<text x="25" y="35" style="font-family: Lucida Console, monospace; font-size: 12px">Firm_compute_income_statement</text>
<text x="25" y="52" style="font-family: Lucida Console, monospace; font-size: 12px">(40 lines)</text>
<rect x="20" y="70" width="199" height="40" stroke="black" stroke-width="2" fill="white"/>
<text x="25" y="85" style="font-family: Lucida Console, monospace; font-size: 12px">Firm_compute_balance_sheet</text>
<text x="25" y="102" style="font-family: Lucida Console, monospace; font-size: 12px">(40 lines)</text>
<rect x="20" y="120" width="199" height="40" stroke="black" stroke-width="2" fill="white"/>
<text x="25" y="135" style="font-family: Lucida Console, monospace; font-size: 12px">Firm_compute_payout_policy</text>
<text x="25" y="152" style="font-family: Lucida Console, monospace; font-size: 12px">(40 lines)</text>
<rect x="20" y="170" width="164" height="40" stroke="black" stroke-width="2" fill="white"/>
<text x="25" y="185" style="font-family: Lucida Console, monospace; font-size: 12px">Firm_apply_for_credit</text>
<text x="25" y="202" style="font-family: Lucida Console, monospace; font-size: 12px">(40 lines)</text>
<rect x="20" y="220" width="178" height="40" stroke="black" stroke-width="2" fill="white"/>
<text x="25" y="235" style="font-family: Lucida Console, monospace; font-size: 12px">Firm_read_credit_offers</text>
<text x="25" y="252" style="font-family: Lucida Console, monospace; font-size: 12px">(40 lines)</text>
<rect x="20" y="270" width="136" height="40" stroke="black" stroke-width="2" fill="white"/>
<text x="25" y="285" style="font-family: Lucida Console, monospace; font-size: 12px">Firm_issue_equity</text>
<text x="25" y="302" style="font-family: Lucida Console, monospace; font-size: 12px">(40 lines)</text>
<rect x="20" y="320" width="192" height="40" stroke="black" stroke-width="2" fill="white"/>
<text x="25" y="335" style="font-family: Lucida Console, monospace; font-size: 12px">Firm_compute_stock_orders</text>
<text x="25" y="352" style="font-family: Lucida Console, monospace; font-size: 12px">(40 lines)</text>
<line x1="0" y1="365" x2="120" y2="365" style="stroke:rgb(256,0,0);stroke-width:2"/>
<rect x="20" y="370" width="248" height="40" stroke="black" stroke-width="2" fill="white"/>
<text x="25" y="385" style="font-family: Lucida Console, monospace; font-size: 12px">Clearinghouse_read_order_messages</text>
<text x="25" y="402" style="font-family: Lucida Console, monospace; font-size: 12px">(40 lines)</text>
<rect x="20" y="420" width="255" height="40" stroke="black" stroke-width="2" fill="white"/>
<text x="25" y="435" style="font-family: Lucida Console, monospace; font-size: 12px">Clearinghouse_compute_transactions</text>
<text x="25" y="452" style="font-family: Lucida Console, monospace; font-size: 12px">(40 lines)</text>
<rect x="20" y="470" width="283" height="40" stroke="black" stroke-width="2" fill="white"/>
<text x="25" y="485" style="font-family: Lucida Console, monospace; font-size: 12px">Clearinghouse_send_transaction_message</text>
<text x="25" y="502" style="font-family: Lucida Console, monospace; font-size: 12px">(40 lines)</text>
<line x1="0" y1="515" x2="120" y2="515" style="stroke:rgb(256,0,0);stroke-width:2"/>
<rect x="20" y="520" width="227" height="40" stroke="black" stroke-width="2" fill="white"/>
<text x="25" y="535" style="font-family: Lucida Console, monospace; font-size: 12px">Firm_update_outstanding_shares</text>
<text x="25" y="552" style="font-family: Lucida Console, monospace; font-size: 12px">(40 lines)</text>
<rect x="257" y="520" width="185" height="40" stroke="black" stroke-width="2" fill="white"/>
<text x="262" y="535" style="font-family: Lucida Console, monospace; font-size: 12px">Firm_compute_bond_orders</text>
<text x="262" y="552" style="font-family: Lucida Console, monospace; font-size: 12px">(40 lines)</text>
<line x1="0" y1="565" x2="120" y2="565" style="stroke:rgb(256,0,0);stroke-width:2"/>

</svg>