<?xml version="1.0" standalone="no"?>
<!DOCTYPE svg PUBLIC "-//W3C//DTD SVG 1.1//EN" "http://www.w3.org/Graphics/SVG/1.1/DTD/svg11.dtd">
<svg width="100%" height="100%" version="1.1" xmlns="http://www.w3.org/2000/svg">

<rect x="20" y="20" width="185" height="40" stroke="black" stroke-width="2" fill="white"/>
<text x="25" y="35" style="font-family: Lucida Console, monospace; font-size: 12px">Mall_send_current_stocks</text>
<text x="25" y="52" style="font-family: Lucida Console, monospace; font-size: 12px">(40 lines)</text>
<line x1="0" y1="65" x2="120" y2="65" style="stroke:rgb(256,0,0);stroke-width:2"/>
<rect x="20" y="70" width="241" height="40" stroke="black" stroke-width="2" fill="white"/>
<text x="25" y="85" style="font-family: Lucida Console, monospace; font-size: 12px">IGFirm_update_productivity_price</text>
<text x="25" y="102" style="font-family: Lucida Console, monospace; font-size: 12px">(40 lines)</text>
<rect x="271" y="70" width="220" height="40" stroke="black" stroke-width="2" fill="white"/>
<text x="276" y="85" style="font-family: Lucida Console, monospace; font-size: 12px">Firm_calc_production_quantity</text>
<text x="276" y="102" style="font-family: Lucida Console, monospace; font-size: 12px">(40 lines)</text>
<line x1="0" y1="115" x2="120" y2="115" style="stroke:rgb(256,0,0);stroke-width:2"/>
<rect x="20" y="120" width="178" height="40" stroke="black" stroke-width="2" fill="white"/>
<text x="25" y="135" style="font-family: Lucida Console, monospace; font-size: 12px">Firm_calc_input_demands</text>
<text x="25" y="152" style="font-family: Lucida Console, monospace; font-size: 12px">(40 lines)</text>
<rect x="20" y="170" width="199" height="40" stroke="black" stroke-width="2" fill="white"/>
<text x="25" y="185" style="font-family: Lucida Console, monospace; font-size: 12px">Firm_compute_payout_policy</text>
<text x="25" y="202" style="font-family: Lucida Console, monospace; font-size: 12px">(40 lines)</text>
<rect x="20" y="220" width="157" height="40" stroke="black" stroke-width="2" fill="white"/>
<text x="25" y="235" style="font-family: Lucida Console, monospace; font-size: 12px">Firm_apply_for_loans</text>
<text x="25" y="252" style="font-family: Lucida Console, monospace; font-size: 12px">(40 lines)</text>
<line x1="0" y1="265" x2="120" y2="265" style="stroke:rgb(256,0,0);stroke-width:2"/>
<rect x="20" y="270" width="255" height="40" stroke="black" stroke-width="2" fill="white"/>
<text x="25" y="285" style="font-family: Lucida Console, monospace; font-size: 12px">Bank_read_loan_request_send_offers</text>
<text x="25" y="302" style="font-family: Lucida Console, monospace; font-size: 12px">(40 lines)</text>
<line x1="0" y1="315" x2="120" y2="315" style="stroke:rgb(256,0,0);stroke-width:2"/>
<rect x="20" y="320" width="311" height="40" stroke="black" stroke-width="2" fill="white"/>
<text x="25" y="335" style="font-family: Lucida Console, monospace; font-size: 12px">Firm_read_loan_offers_send_loan_acceptance</text>
<text x="25" y="352" style="font-family: Lucida Console, monospace; font-size: 12px">(40 lines)</text>
<rect x="20" y="370" width="248" height="40" stroke="black" stroke-width="2" fill="white"/>
<text x="25" y="385" style="font-family: Lucida Console, monospace; font-size: 12px">Firm_compute_and_send_bond_orders</text>
<text x="25" y="402" style="font-family: Lucida Console, monospace; font-size: 12px">(40 lines)</text>
<line x1="0" y1="415" x2="120" y2="415" style="stroke:rgb(256,0,0);stroke-width:2"/>
<rect x="20" y="420" width="227" height="40" stroke="black" stroke-width="2" fill="white"/>
<text x="25" y="435" style="font-family: Lucida Console, monospace; font-size: 12px">Clearinghouse_read_bond_orders</text>
<text x="25" y="452" style="font-family: Lucida Console, monospace; font-size: 12px">(40 lines)</text>
<rect x="20" y="470" width="290" height="40" stroke="black" stroke-width="2" fill="white"/>
<text x="25" y="485" style="font-family: Lucida Console, monospace; font-size: 12px">Clearinghouse_compute_bond_transactions</text>
<text x="25" y="502" style="font-family: Lucida Console, monospace; font-size: 12px">(40 lines)</text>
<rect x="20" y="520" width="269" height="40" stroke="black" stroke-width="2" fill="white"/>
<text x="25" y="535" style="font-family: Lucida Console, monospace; font-size: 12px">Clearinghouse_send_bond_transactions</text>
<text x="25" y="552" style="font-family: Lucida Console, monospace; font-size: 12px">(40 lines)</text>
<line x1="0" y1="565" x2="120" y2="565" style="stroke:rgb(256,0,0);stroke-width:2"/>
<rect x="20" y="570" width="206" height="40" stroke="black" stroke-width="2" fill="white"/>
<text x="25" y="585" style="font-family: Lucida Console, monospace; font-size: 12px">Firm_read_bond_transactions</text>
<text x="25" y="602" style="font-family: Lucida Console, monospace; font-size: 12px">(40 lines)</text>
<rect x="20" y="620" width="255" height="40" stroke="black" stroke-width="2" fill="white"/>
<text x="25" y="635" style="font-family: Lucida Console, monospace; font-size: 12px">Firm_compute_and_send_stock_orders</text>
<text x="25" y="652" style="font-family: Lucida Console, monospace; font-size: 12px">(40 lines)</text>
<line x1="0" y1="665" x2="120" y2="665" style="stroke:rgb(256,0,0);stroke-width:2"/>
<rect x="20" y="670" width="234" height="40" stroke="black" stroke-width="2" fill="white"/>
<text x="25" y="685" style="font-family: Lucida Console, monospace; font-size: 12px">Clearinghouse_read_stock_orders</text>
<text x="25" y="702" style="font-family: Lucida Console, monospace; font-size: 12px">(40 lines)</text>
<rect x="20" y="720" width="297" height="40" stroke="black" stroke-width="2" fill="white"/>
<text x="25" y="735" style="font-family: Lucida Console, monospace; font-size: 12px">Clearinghouse_compute_stock_transactions</text>
<text x="25" y="752" style="font-family: Lucida Console, monospace; font-size: 12px">(40 lines)</text>
<rect x="20" y="770" width="276" height="40" stroke="black" stroke-width="2" fill="white"/>
<text x="25" y="785" style="font-family: Lucida Console, monospace; font-size: 12px">Clearinghouse_send_stock_transactions</text>
<text x="25" y="802" style="font-family: Lucida Console, monospace; font-size: 12px">(40 lines)</text>
<line x1="0" y1="815" x2="120" y2="815" style="stroke:rgb(256,0,0);stroke-width:2"/>
<rect x="20" y="820" width="213" height="40" stroke="black" stroke-width="2" fill="white"/>
<text x="25" y="835" style="font-family: Lucida Console, monospace; font-size: 12px">Firm_read_stock_transactions</text>
<text x="25" y="852" style="font-family: Lucida Console, monospace; font-size: 12px">(40 lines)</text>
<rect x="20" y="870" width="234" height="40" stroke="black" stroke-width="2" fill="white"/>
<text x="25" y="885" style="font-family: Lucida Console, monospace; font-size: 12px">Firm_calc_production_quantity_2</text>
<text x="25" y="902" style="font-family: Lucida Console, monospace; font-size: 12px">(40 lines)</text>
<rect x="20" y="920" width="192" height="40" stroke="black" stroke-width="2" fill="white"/>
<text x="25" y="935" style="font-family: Lucida Console, monospace; font-size: 12px">Market_Research_send_data</text>
<text x="25" y="952" style="font-family: Lucida Console, monospace; font-size: 12px">(40 lines)</text>
<rect x="222" y="920" width="171" height="40" stroke="black" stroke-width="2" fill="white"/>
<text x="227" y="935" style="font-family: Lucida Console, monospace; font-size: 12px">Firm_send_redundancies</text>
<text x="227" y="952" style="font-family: Lucida Console, monospace; font-size: 12px">(40 lines)</text>
<line x1="0" y1="965" x2="120" y2="965" style="stroke:rgb(256,0,0);stroke-width:2"/>
<rect x="20" y="970" width="227" height="40" stroke="black" stroke-width="2" fill="white"/>
<text x="25" y="985" style="font-family: Lucida Console, monospace; font-size: 12px">Household_read_firing_messages</text>
<text x="25" y="1002" style="font-family: Lucida Console, monospace; font-size: 12px">(40 lines)</text>
<rect x="257" y="970" width="332" height="40" stroke="black" stroke-width="2" fill="white"/>
<text x="262" y="985" style="font-family: Lucida Console, monospace; font-size: 12px">Firm_calculate_specific_skills_and_wage_offer</text>
<text x="262" y="1002" style="font-family: Lucida Console, monospace; font-size: 12px">(40 lines)</text>
<rect x="20" y="1020" width="276" height="40" stroke="black" stroke-width="2" fill="white"/>
<text x="25" y="1035" style="font-family: Lucida Console, monospace; font-size: 12px">Household_on_the_job_search_Yes_or_No</text>
<text x="25" y="1052" style="font-family: Lucida Console, monospace; font-size: 12px">(40 lines)</text>
<rect x="306" y="1020" width="150" height="40" stroke="black" stroke-width="2" fill="white"/>
<text x="311" y="1035" style="font-family: Lucida Console, monospace; font-size: 12px">Firm_send_vacancies</text>
<text x="311" y="1052" style="font-family: Lucida Console, monospace; font-size: 12px">(40 lines)</text>
<line x1="0" y1="1065" x2="120" y2="1065" style="stroke:rgb(256,0,0);stroke-width:2"/>
<rect x="20" y="1070" width="367" height="40" stroke="black" stroke-width="2" fill="white"/>
<text x="25" y="1085" style="font-family: Lucida Console, monospace; font-size: 12px">Household_read_job_vacancies_and_send_applications</text>
<text x="25" y="1102" style="font-family: Lucida Console, monospace; font-size: 12px">(40 lines)</text>
<line x1="0" y1="1115" x2="120" y2="1115" style="stroke:rgb(256,0,0);stroke-width:2"/>
<rect x="20" y="1120" width="395" height="40" stroke="black" stroke-width="2" fill="white"/>
<text x="25" y="1135" style="font-family: Lucida Console, monospace; font-size: 12px">Firm_read_job_applications_send_job_offer_or_rejection</text>
<text x="25" y="1152" style="font-family: Lucida Console, monospace; font-size: 12px">(40 lines)</text>
<line x1="0" y1="1165" x2="120" y2="1165" style="stroke:rgb(256,0,0);stroke-width:2"/>
<rect x="20" y="1170" width="290" height="40" stroke="black" stroke-width="2" fill="white"/>
<text x="25" y="1185" style="font-family: Lucida Console, monospace; font-size: 12px">Household_read_job_offers_send_response</text>
<text x="25" y="1202" style="font-family: Lucida Console, monospace; font-size: 12px">(40 lines)</text>
<line x1="0" y1="1215" x2="120" y2="1215" style="stroke:rgb(256,0,0);stroke-width:2"/>
<rect x="20" y="1220" width="178" height="40" stroke="black" stroke-width="2" fill="white"/>
<text x="25" y="1235" style="font-family: Lucida Console, monospace; font-size: 12px">Firm_read_job_responses</text>
<text x="25" y="1252" style="font-family: Lucida Console, monospace; font-size: 12px">(40 lines)</text>
<rect x="20" y="1270" width="171" height="40" stroke="black" stroke-width="2" fill="white"/>
<text x="25" y="1285" style="font-family: Lucida Console, monospace; font-size: 12px">Firm_update_wage_offer</text>
<text x="25" y="1302" style="font-family: Lucida Console, monospace; font-size: 12px">(40 lines)</text>
<line x1="0" y1="1315" x2="120" y2="1315" style="stroke:rgb(256,0,0);stroke-width:2"/>
<rect x="20" y="1320" width="437" height="40" stroke="black" stroke-width="2" fill="white"/>
<text x="25" y="1335" style="font-family: Lucida Console, monospace; font-size: 12px">Household_read_application_rejection_update_wage_reservation</text>
<text x="25" y="1352" style="font-family: Lucida Console, monospace; font-size: 12px">(40 lines)</text>
<rect x="467" y="1320" width="164" height="40" stroke="black" stroke-width="2" fill="white"/>
<text x="472" y="1335" style="font-family: Lucida Console, monospace; font-size: 12px">Firm_send_vacancies_2</text>
<text x="472" y="1352" style="font-family: Lucida Console, monospace; font-size: 12px">(40 lines)</text>
<line x1="0" y1="1365" x2="120" y2="1365" style="stroke:rgb(256,0,0);stroke-width:2"/>
<rect x="20" y="1370" width="381" height="40" stroke="black" stroke-width="2" fill="white"/>
<text x="25" y="1385" style="font-family: Lucida Console, monospace; font-size: 12px">Household_read_job_vacancies_and_send_applications_2</text>
<text x="25" y="1402" style="font-family: Lucida Console, monospace; font-size: 12px">(40 lines)</text>
<line x1="0" y1="1415" x2="120" y2="1415" style="stroke:rgb(256,0,0);stroke-width:2"/>
<rect x="20" y="1420" width="409" height="40" stroke="black" stroke-width="2" fill="white"/>
<text x="25" y="1435" style="font-family: Lucida Console, monospace; font-size: 12px">Firm_read_job_applications_send_job_offer_or_rejection_2</text>
<text x="25" y="1452" style="font-family: Lucida Console, monospace; font-size: 12px">(40 lines)</text>
<line x1="0" y1="1465" x2="120" y2="1465" style="stroke:rgb(256,0,0);stroke-width:2"/>
<rect x="20" y="1470" width="304" height="40" stroke="black" stroke-width="2" fill="white"/>
<text x="25" y="1485" style="font-family: Lucida Console, monospace; font-size: 12px">Household_read_job_offers_send_response_2</text>
<text x="25" y="1502" style="font-family: Lucida Console, monospace; font-size: 12px">(40 lines)</text>
<line x1="0" y1="1515" x2="120" y2="1515" style="stroke:rgb(256,0,0);stroke-width:2"/>
<rect x="20" y="1520" width="192" height="40" stroke="black" stroke-width="2" fill="white"/>
<text x="25" y="1535" style="font-family: Lucida Console, monospace; font-size: 12px">Firm_read_job_responses_2</text>
<text x="25" y="1552" style="font-family: Lucida Console, monospace; font-size: 12px">(40 lines)</text>
<rect x="20" y="1570" width="185" height="40" stroke="black" stroke-width="2" fill="white"/>
<text x="25" y="1585" style="font-family: Lucida Console, monospace; font-size: 12px">Firm_send_capital_demand</text>
<text x="25" y="1602" style="font-family: Lucida Console, monospace; font-size: 12px">(40 lines)</text>
<line x1="0" y1="1615" x2="120" y2="1615" style="stroke:rgb(256,0,0);stroke-width:2"/>
<rect x="20" y="1620" width="185" height="40" stroke="black" stroke-width="2" fill="white"/>
<text x="25" y="1635" style="font-family: Lucida Console, monospace; font-size: 12px">IGFirm_send_capital_good</text>
<text x="25" y="1652" style="font-family: Lucida Console, monospace; font-size: 12px">(40 lines)</text>
<line x1="0" y1="1665" x2="120" y2="1665" style="stroke:rgb(256,0,0);stroke-width:2"/>
<rect x="20" y="1670" width="150" height="40" stroke="black" stroke-width="2" fill="white"/>
<text x="25" y="1685" style="font-family: Lucida Console, monospace; font-size: 12px">Firm_calc_pay_costs</text>
<text x="25" y="1702" style="font-family: Lucida Console, monospace; font-size: 12px">(40 lines)</text>
<rect x="20" y="1720" width="178" height="40" stroke="black" stroke-width="2" fill="white"/>
<text x="25" y="1735" style="font-family: Lucida Console, monospace; font-size: 12px">Firm_send_goods_to_mall</text>
<text x="25" y="1752" style="font-family: Lucida Console, monospace; font-size: 12px">(40 lines)</text>
<line x1="0" y1="1765" x2="120" y2="1765" style="stroke:rgb(256,0,0);stroke-width:2"/>
<rect x="20" y="1770" width="171" height="40" stroke="black" stroke-width="2" fill="white"/>
<text x="25" y="1785" style="font-family: Lucida Console, monospace; font-size: 12px">Mall_update_mall_stock</text>
<text x="25" y="1802" style="font-family: Lucida Console, monospace; font-size: 12px">(40 lines)</text>
<line x1="0" y1="1815" x2="120" y2="1815" style="stroke:rgb(256,0,0);stroke-width:2"/>
<rect x="20" y="1820" width="227" height="40" stroke="black" stroke-width="2" fill="white"/>
<text x="25" y="1835" style="font-family: Lucida Console, monospace; font-size: 12px">Mall_send_quality_price_info_1</text>
<text x="25" y="1852" style="font-family: Lucida Console, monospace; font-size: 12px">(40 lines)</text>
<rect x="257" y="1820" width="171" height="40" stroke="black" stroke-width="2" fill="white"/>
<text x="262" y="1835" style="font-family: Lucida Console, monospace; font-size: 12px">Household_receive_wage</text>
<text x="262" y="1852" style="font-family: Lucida Console, monospace; font-size: 12px">(40 lines)</text>
<line x1="0" y1="1865" x2="120" y2="1865" style="stroke:rgb(256,0,0);stroke-width:2"/>
<rect x="20" y="1870" width="227" height="40" stroke="black" stroke-width="2" fill="white"/>
<text x="25" y="1885" style="font-family: Lucida Console, monospace; font-size: 12px">Household_rank_and_buy_goods_1</text>
<text x="25" y="1902" style="font-family: Lucida Console, monospace; font-size: 12px">(40 lines)</text>
<line x1="0" y1="1915" x2="120" y2="1915" style="stroke:rgb(256,0,0);stroke-width:2"/>
<rect x="20" y="1920" width="304" height="40" stroke="black" stroke-width="2" fill="white"/>
<text x="25" y="1935" style="font-family: Lucida Console, monospace; font-size: 12px">Mall_update_mall_stocks_sales_rationing_1</text>
<text x="25" y="1952" style="font-family: Lucida Console, monospace; font-size: 12px">(40 lines)</text>
<line x1="0" y1="1965" x2="120" y2="1965" style="stroke:rgb(256,0,0);stroke-width:2"/>
<rect x="20" y="1970" width="227" height="40" stroke="black" stroke-width="2" fill="white"/>
<text x="25" y="1985" style="font-family: Lucida Console, monospace; font-size: 12px">Household_rank_and_buy_goods_2</text>
<text x="25" y="2002" style="font-family: Lucida Console, monospace; font-size: 12px">(40 lines)</text>
<line x1="0" y1="2015" x2="120" y2="2015" style="stroke:rgb(256,0,0);stroke-width:2"/>
<rect x="20" y="2020" width="304" height="40" stroke="black" stroke-width="2" fill="white"/>
<text x="25" y="2035" style="font-family: Lucida Console, monospace; font-size: 12px">Mall_update_mall_stocks_sales_rationing_2</text>
<text x="25" y="2052" style="font-family: Lucida Console, monospace; font-size: 12px">(40 lines)</text>
<rect x="20" y="2070" width="108" height="40" stroke="black" stroke-width="2" fill="white"/>
<text x="25" y="2085" style="font-family: Lucida Console, monospace; font-size: 12px">Mall_pay_firm</text>
<text x="25" y="2102" style="font-family: Lucida Console, monospace; font-size: 12px">(40 lines)</text>
<rect x="138" y="2070" width="276" height="40" stroke="black" stroke-width="2" fill="white"/>
<text x="143" y="2085" style="font-family: Lucida Console, monospace; font-size: 12px">Firm_compute_and_send_gov_bond_orders</text>
<text x="143" y="2102" style="font-family: Lucida Console, monospace; font-size: 12px">(40 lines)</text>
<line x1="0" y1="2115" x2="120" y2="2115" style="stroke:rgb(256,0,0);stroke-width:2"/>
<rect x="20" y="2120" width="255" height="40" stroke="black" stroke-width="2" fill="white"/>
<text x="25" y="2135" style="font-family: Lucida Console, monospace; font-size: 12px">Clearinghouse_read_gov_bond_orders</text>
<text x="25" y="2152" style="font-family: Lucida Console, monospace; font-size: 12px">(40 lines)</text>
<rect x="285" y="2120" width="171" height="40" stroke="black" stroke-width="2" fill="white"/>
<text x="290" y="2135" style="font-family: Lucida Console, monospace; font-size: 12px">IGFirm_receive_payment</text>
<text x="290" y="2152" style="font-family: Lucida Console, monospace; font-size: 12px">(40 lines)</text>
<rect x="466" y="2120" width="185" height="40" stroke="black" stroke-width="2" fill="white"/>
<text x="471" y="2135" style="font-family: Lucida Console, monospace; font-size: 12px">Household_read_rationing</text>
<text x="471" y="2152" style="font-family: Lucida Console, monospace; font-size: 12px">(40 lines)</text>
<rect x="661" y="2120" width="136" height="40" stroke="black" stroke-width="2" fill="white"/>
<text x="666" y="2135" style="font-family: Lucida Console, monospace; font-size: 12px">Firm_calc_revenue</text>
<text x="666" y="2152" style="font-family: Lucida Console, monospace; font-size: 12px">(40 lines)</text>
<line x1="0" y1="2165" x2="120" y2="2165" style="stroke:rgb(256,0,0);stroke-width:2"/>
<rect x="20" y="2170" width="318" height="40" stroke="black" stroke-width="2" fill="white"/>
<text x="25" y="2185" style="font-family: Lucida Console, monospace; font-size: 12px">Clearinghouse_compute_gov_bond_transactions</text>
<text x="25" y="2202" style="font-family: Lucida Console, monospace; font-size: 12px">(40 lines)</text>
<rect x="348" y="2170" width="241" height="40" stroke="black" stroke-width="2" fill="white"/>
<text x="353" y="2185" style="font-family: Lucida Console, monospace; font-size: 12px">Household_handle_leftover_budget</text>
<text x="353" y="2202" style="font-family: Lucida Console, monospace; font-size: 12px">(40 lines)</text>
<rect x="599" y="2170" width="283" height="40" stroke="black" stroke-width="2" fill="white"/>
<text x="604" y="2185" style="font-family: Lucida Console, monospace; font-size: 12px">Firm_update_specific_skills_of_workers</text>
<text x="604" y="2202" style="font-family: Lucida Console, monospace; font-size: 12px">(40 lines)</text>
<rect x="20" y="2220" width="297" height="40" stroke="black" stroke-width="2" fill="white"/>
<text x="25" y="2235" style="font-family: Lucida Console, monospace; font-size: 12px">Clearinghouse_send_gov_bond_transactions</text>
<text x="25" y="2252" style="font-family: Lucida Console, monospace; font-size: 12px">(40 lines)</text>
<rect x="327" y="2220" width="283" height="40" stroke="black" stroke-width="2" fill="white"/>
<text x="332" y="2235" style="font-family: Lucida Console, monospace; font-size: 12px">Household_send_data_to_Market_Research</text>
<text x="332" y="2252" style="font-family: Lucida Console, monospace; font-size: 12px">(40 lines)</text>
<rect x="620" y="2220" width="220" height="40" stroke="black" stroke-width="2" fill="white"/>
<text x="625" y="2235" style="font-family: Lucida Console, monospace; font-size: 12px">Firm_compute_income_statement</text>
<text x="625" y="2252" style="font-family: Lucida Console, monospace; font-size: 12px">(40 lines)</text>
<rect x="850" y="2220" width="248" height="40" stroke="black" stroke-width="2" fill="white"/>
<text x="855" y="2235" style="font-family: Lucida Console, monospace; font-size: 12px">Firm_send_data_to_Market_Research</text>
<text x="855" y="2252" style="font-family: Lucida Console, monospace; font-size: 12px">(40 lines)</text>
<line x1="0" y1="2265" x2="120" y2="2265" style="stroke:rgb(256,0,0);stroke-width:2"/>
<rect x="20" y="2270" width="227" height="40" stroke="black" stroke-width="2" fill="white"/>
<text x="25" y="2285" style="font-family: Lucida Console, monospace; font-size: 12px">Market_Research_calculate_data</text>
<text x="25" y="2302" style="font-family: Lucida Console, monospace; font-size: 12px">(40 lines)</text>
<rect x="257" y="2270" width="451" height="40" stroke="black" stroke-width="2" fill="white"/>
<text x="262" y="2285" style="font-family: Lucida Console, monospace; font-size: 12px">Household_read_application_rejection_update_wage_reservation_2</text>
<text x="262" y="2302" style="font-family: Lucida Console, monospace; font-size: 12px">(40 lines)</text>
<rect x="718" y="2270" width="234" height="40" stroke="black" stroke-width="2" fill="white"/>
<text x="723" y="2285" style="font-family: Lucida Console, monospace; font-size: 12px">Firm_read_gov_bond_transactions</text>
<text x="723" y="2302" style="font-family: Lucida Console, monospace; font-size: 12px">(40 lines)</text>
<rect x="962" y="2270" width="199" height="40" stroke="black" stroke-width="2" fill="white"/>
<text x="967" y="2285" style="font-family: Lucida Console, monospace; font-size: 12px">Firm_compute_balance_sheet</text>
<text x="967" y="2302" style="font-family: Lucida Console, monospace; font-size: 12px">(40 lines)</text>
<rect x="1171" y="2270" width="192" height="40" stroke="black" stroke-width="2" fill="white"/>
<text x="1176" y="2285" style="font-family: Lucida Console, monospace; font-size: 12px">Firm_calc_input_demands_2</text>
<text x="1176" y="2302" style="font-family: Lucida Console, monospace; font-size: 12px">(40 lines)</text>
<rect x="1373" y="2270" width="185" height="40" stroke="black" stroke-width="2" fill="white"/>
<text x="1378" y="2285" style="font-family: Lucida Console, monospace; font-size: 12px">Firm_update_wage_offer_2</text>
<text x="1378" y="2302" style="font-family: Lucida Console, monospace; font-size: 12px">(40 lines)</text>
<line x1="0" y1="2315" x2="120" y2="2315" style="stroke:rgb(256,0,0);stroke-width:2"/>

</svg>