<?xml version="1.0" standalone="no"?>
<!DOCTYPE svg PUBLIC "-//W3C//DTD SVG 1.1//EN" "http://www.w3.org/Graphics/SVG/1.1/DTD/svg11.dtd">
<svg width="100%" height="100%" version="1.1" xmlns="http://www.w3.org/2000/svg">

<rect x="20" y="20" width="136" height="40" stroke="black" stroke-width="2" fill="white"/>
<text x="25" y="35" style="font-family: Lucida Console, monospace; font-size: 12px">Every_100_periods</text>
<text x="25" y="52" style="font-family: Lucida Console, monospace; font-size: 12px">(40 lines)</text>
<rect x="20" y="70" width="150" height="40" stroke="black" stroke-width="2" fill="white"/>
<text x="25" y="85" style="font-family: Lucida Console, monospace; font-size: 12px">GameSolver_apply_GA</text>
<text x="25" y="102" style="font-family: Lucida Console, monospace; font-size: 12px">(40 lines)</text>
<rect x="20" y="120" width="297" height="40" stroke="black" stroke-width="2" fill="white"/>
<text x="25" y="135" style="font-family: Lucida Console, monospace; font-size: 12px">GameSolver_send_ruledetailsystem_message</text>
<text x="25" y="152" style="font-family: Lucida Console, monospace; font-size: 12px">(40 lines)</text>
<line x1="0" y1="165" x2="120" y2="165" style="stroke:rgb(256,0,0);stroke-width:2"/>
<rect x="20" y="170" width="297" height="40" stroke="black" stroke-width="2" fill="white"/>
<text x="25" y="185" style="font-family: Lucida Console, monospace; font-size: 12px">GamePlayer_read_ruledetailsystem_message</text>
<text x="25" y="202" style="font-family: Lucida Console, monospace; font-size: 12px">(40 lines)</text>
<rect x="20" y="220" width="304" height="40" stroke="black" stroke-width="2" fill="white"/>
<text x="25" y="235" style="font-family: Lucida Console, monospace; font-size: 12px">GamePlayer_reset_private_classifiersystem</text>
<text x="25" y="252" style="font-family: Lucida Console, monospace; font-size: 12px">(40 lines)</text>
<rect x="20" y="270" width="101" height="40" stroke="black" stroke-width="2" fill="white"/>
<text x="25" y="285" style="font-family: Lucida Console, monospace; font-size: 12px">Every_period</text>
<text x="25" y="302" style="font-family: Lucida Console, monospace; font-size: 12px">(40 lines)</text>
<rect x="20" y="320" width="339" height="40" stroke="black" stroke-width="2" fill="white"/>
<text x="25" y="335" style="font-family: Lucida Console, monospace; font-size: 12px">GameSolver_daily_reset_public_classifiersystem</text>
<text x="25" y="352" style="font-family: Lucida Console, monospace; font-size: 12px">(40 lines)</text>
<rect x="369" y="320" width="269" height="40" stroke="black" stroke-width="2" fill="white"/>
<text x="374" y="335" style="font-family: Lucida Console, monospace; font-size: 12px">GamePlayer_send_current_rule_message</text>
<text x="374" y="352" style="font-family: Lucida Console, monospace; font-size: 12px">(40 lines)</text>
<line x1="0" y1="365" x2="120" y2="365" style="stroke:rgb(256,0,0);stroke-width:2"/>
<rect x="20" y="370" width="269" height="40" stroke="black" stroke-width="2" fill="white"/>
<text x="25" y="385" style="font-family: Lucida Console, monospace; font-size: 12px">GameSolver_read_current_rule_message</text>
<text x="25" y="402" style="font-family: Lucida Console, monospace; font-size: 12px">(40 lines)</text>
<rect x="20" y="420" width="199" height="40" stroke="black" stroke-width="2" fill="white"/>
<text x="25" y="435" style="font-family: Lucida Console, monospace; font-size: 12px">GameSolver_play_tournament</text>
<text x="25" y="452" style="font-family: Lucida Console, monospace; font-size: 12px">(40 lines)</text>
<rect x="20" y="470" width="255" height="40" stroke="black" stroke-width="2" fill="white"/>
<text x="25" y="485" style="font-family: Lucida Console, monospace; font-size: 12px">GameSolver_update_classifiersystem</text>
<text x="25" y="502" style="font-family: Lucida Console, monospace; font-size: 12px">(40 lines)</text>
<rect x="20" y="520" width="297" height="40" stroke="black" stroke-width="2" fill="white"/>
<text x="25" y="535" style="font-family: Lucida Console, monospace; font-size: 12px">GameSolver_send_all_performances_message</text>
<text x="25" y="552" style="font-family: Lucida Console, monospace; font-size: 12px">(40 lines)</text>
<line x1="0" y1="565" x2="120" y2="565" style="stroke:rgb(256,0,0);stroke-width:2"/>
<rect x="20" y="570" width="297" height="40" stroke="black" stroke-width="2" fill="white"/>
<text x="25" y="585" style="font-family: Lucida Console, monospace; font-size: 12px">GamePlayer_read_all_performances_message</text>
<text x="25" y="602" style="font-family: Lucida Console, monospace; font-size: 12px">(40 lines)</text>
<rect x="20" y="620" width="297" height="40" stroke="black" stroke-width="2" fill="white"/>
<text x="25" y="635" style="font-family: Lucida Console, monospace; font-size: 12px">GameSolver_reset_public_classifiersystem</text>
<text x="25" y="652" style="font-family: Lucida Console, monospace; font-size: 12px">(40 lines)</text>
<rect x="327" y="620" width="171" height="40" stroke="black" stroke-width="2" fill="white"/>
<text x="332" y="635" style="font-family: Lucida Console, monospace; font-size: 12px">GamePlayer_select_rule</text>
<text x="332" y="652" style="font-family: Lucida Console, monospace; font-size: 12px">(40 lines)</text>
<line x1="0" y1="665" x2="120" y2="665" style="stroke:rgb(256,0,0);stroke-width:2"/>

</svg>