<?xml version="1.0" standalone="no"?>
<!DOCTYPE svg PUBLIC "-//W3C//DTD SVG 1.1//EN" "http://www.w3.org/Graphics/SVG/1.1/DTD/svg11.dtd">
<svg width="100%" height="100%" version="1.1" xmlns="http://www.w3.org/2000/svg">

<rect x="20" y="20" width="136" height="40" stroke="black" stroke-width="2" fill="white"/>
<text x="25" y="35" style="font-family: Lucida Console, monospace; font-size: 12px">Every_100_periods</text>
<text x="25" y="52" style="font-family: Lucida Console, monospace; font-size: 12px">(40 lines)</text>
<rect x="20" y="70" width="178" height="40" stroke="black" stroke-width="2" fill="white"/>
<text x="25" y="85" style="font-family: Lucida Console, monospace; font-size: 12px">FinancialAgent_apply_GA</text>
<text x="25" y="102" style="font-family: Lucida Console, monospace; font-size: 12px">(40 lines)</text>
<rect x="20" y="120" width="283" height="40" stroke="black" stroke-width="2" fill="white"/>
<text x="25" y="135" style="font-family: Lucida Console, monospace; font-size: 12px">FinancialAgent_update_ruledetailsystem</text>
<text x="25" y="152" style="font-family: Lucida Console, monospace; font-size: 12px">(40 lines)</text>
<rect x="20" y="170" width="325" height="40" stroke="black" stroke-width="2" fill="white"/>
<text x="25" y="185" style="font-family: Lucida Console, monospace; font-size: 12px">FinancialAgent_send_ruledetailsystem_message</text>
<text x="25" y="202" style="font-family: Lucida Console, monospace; font-size: 12px">(40 lines)</text>
<line x1="0" y1="215" x2="120" y2="215" style="stroke:rgb(256,0,0);stroke-width:2"/>
<rect x="20" y="220" width="290" height="40" stroke="black" stroke-width="2" fill="white"/>
<text x="25" y="235" style="font-family: Lucida Console, monospace; font-size: 12px">Household_read_ruledetailsystem_message</text>
<text x="25" y="252" style="font-family: Lucida Console, monospace; font-size: 12px">(40 lines)</text>
<rect x="20" y="270" width="248" height="40" stroke="black" stroke-width="2" fill="white"/>
<text x="25" y="285" style="font-family: Lucida Console, monospace; font-size: 12px">Household_update_ruledetailsystem</text>
<text x="25" y="302" style="font-family: Lucida Console, monospace; font-size: 12px">(40 lines)</text>
<rect x="20" y="320" width="297" height="40" stroke="black" stroke-width="2" fill="white"/>
<text x="25" y="335" style="font-family: Lucida Console, monospace; font-size: 12px">Household_reset_private_classifiersystem</text>
<text x="25" y="352" style="font-family: Lucida Console, monospace; font-size: 12px">(40 lines)</text>
<rect x="20" y="370" width="101" height="40" stroke="black" stroke-width="2" fill="white"/>
<text x="25" y="385" style="font-family: Lucida Console, monospace; font-size: 12px">Every_period</text>
<text x="25" y="402" style="font-family: Lucida Console, monospace; font-size: 12px">(40 lines)</text>
<rect x="20" y="420" width="367" height="40" stroke="black" stroke-width="2" fill="white"/>
<text x="25" y="435" style="font-family: Lucida Console, monospace; font-size: 12px">FinancialAgent_daily_reset_public_classifiersystem</text>
<text x="25" y="452" style="font-family: Lucida Console, monospace; font-size: 12px">(40 lines)</text>
<rect x="397" y="420" width="290" height="40" stroke="black" stroke-width="2" fill="white"/>
<text x="402" y="435" style="font-family: Lucida Console, monospace; font-size: 12px">Household_send_rule_performance_message</text>
<text x="402" y="452" style="font-family: Lucida Console, monospace; font-size: 12px">(40 lines)</text>
<line x1="0" y1="465" x2="120" y2="465" style="stroke:rgb(256,0,0);stroke-width:2"/>
<rect x="20" y="470" width="325" height="40" stroke="black" stroke-width="2" fill="white"/>
<text x="25" y="485" style="font-family: Lucida Console, monospace; font-size: 12px">FinancialAgent_read_rule_performance_message</text>
<text x="25" y="502" style="font-family: Lucida Console, monospace; font-size: 12px">(40 lines)</text>
<rect x="20" y="520" width="283" height="40" stroke="black" stroke-width="2" fill="white"/>
<text x="25" y="535" style="font-family: Lucida Console, monospace; font-size: 12px">FinancialAgent_update_classifiersystem</text>
<text x="25" y="552" style="font-family: Lucida Console, monospace; font-size: 12px">(40 lines)</text>
<rect x="20" y="570" width="325" height="40" stroke="black" stroke-width="2" fill="white"/>
<text x="25" y="585" style="font-family: Lucida Console, monospace; font-size: 12px">FinancialAgent_send_all_performances_message</text>
<text x="25" y="602" style="font-family: Lucida Console, monospace; font-size: 12px">(40 lines)</text>
<line x1="0" y1="615" x2="120" y2="615" style="stroke:rgb(256,0,0);stroke-width:2"/>
<rect x="20" y="620" width="290" height="40" stroke="black" stroke-width="2" fill="white"/>
<text x="25" y="635" style="font-family: Lucida Console, monospace; font-size: 12px">Household_read_all_performances_message</text>
<text x="25" y="652" style="font-family: Lucida Console, monospace; font-size: 12px">(40 lines)</text>
<rect x="20" y="670" width="164" height="40" stroke="black" stroke-width="2" fill="white"/>
<text x="25" y="685" style="font-family: Lucida Console, monospace; font-size: 12px">Household_select_rule</text>
<text x="25" y="702" style="font-family: Lucida Console, monospace; font-size: 12px">(40 lines)</text>
<rect x="20" y="720" width="234" height="40" stroke="black" stroke-width="2" fill="white"/>
<text x="25" y="735" style="font-family: Lucida Console, monospace; font-size: 12px">Household_retrieve_rule_details</text>
<text x="25" y="752" style="font-family: Lucida Console, monospace; font-size: 12px">(40 lines)</text>
<rect x="20" y="770" width="157" height="40" stroke="black" stroke-width="2" fill="white"/>
<text x="25" y="785" style="font-family: Lucida Console, monospace; font-size: 12px">Household_apply_rule</text>
<text x="25" y="802" style="font-family: Lucida Console, monospace; font-size: 12px">(40 lines)</text>
<line x1="0" y1="815" x2="120" y2="815" style="stroke:rgb(256,0,0);stroke-width:2"/>
<rect x="20" y="820" width="248" height="40" stroke="black" stroke-width="2" fill="white"/>
<text x="25" y="835" style="font-family: Lucida Console, monospace; font-size: 12px">Clearinghouse_read_order_messages</text>
<text x="25" y="852" style="font-family: Lucida Console, monospace; font-size: 12px">(40 lines)</text>
<line x1="0" y1="865" x2="120" y2="865" style="stroke:rgb(256,0,0);stroke-width:2"/>
<rect x="20" y="870" width="325" height="40" stroke="black" stroke-width="2" fill="white"/>
<text x="25" y="885" style="font-family: Lucida Console, monospace; font-size: 12px">FinancialAgent_reset_public_classifiersystem</text>
<text x="25" y="902" style="font-family: Lucida Console, monospace; font-size: 12px">(40 lines)</text>
<rect x="355" y="870" width="255" height="40" stroke="black" stroke-width="2" fill="white"/>
<text x="360" y="885" style="font-family: Lucida Console, monospace; font-size: 12px">Household_read_transaction_message</text>
<text x="360" y="902" style="font-family: Lucida Console, monospace; font-size: 12px">(40 lines)</text>
<line x1="0" y1="915" x2="120" y2="915" style="stroke:rgb(256,0,0);stroke-width:2"/>

</svg>