<?xml version="1.0" standalone="no"?>
<!DOCTYPE svg PUBLIC "-//W3C//DTD SVG 1.1//EN" "http://www.w3.org/Graphics/SVG/1.1/DTD/svg11.dtd">
<svg width="100%" height="100%" version="1.1" xmlns="http://www.w3.org/2000/svg">

<rect x="20" y="20" width="290" height="40" stroke="black" stroke-width="2" fill="white"/>
<text x="25" y="35" style="font-family: Lucida Console, monospace; font-size: 12px">Household_send_rule_performance_message</text>
<text x="25" y="52" style="font-family: Lucida Console, monospace; font-size: 12px">(40 lines)</text>
<line x1="0" y1="65" x2="120" y2="65" style="stroke:rgb(256,0,0);stroke-width:2"/>
<rect x="20" y="70" width="325" height="40" stroke="black" stroke-width="2" fill="white"/>
<text x="25" y="85" style="font-family: Lucida Console, monospace; font-size: 12px">FinancialAgent_read_rule_performance_message</text>
<text x="25" y="102" style="font-family: Lucida Console, monospace; font-size: 12px">(40 lines)</text>
<line x1="0" y1="115" x2="120" y2="115" style="stroke:rgb(256,0,0);stroke-width:2"/>
<rect x="20" y="120" width="304" height="40" stroke="black" stroke-width="2" fill="white"/>
<text x="25" y="135" style="font-family: Lucida Console, monospace; font-size: 12px">Household_reads_all_performances_messages</text>
<text x="25" y="152" style="font-family: Lucida Console, monospace; font-size: 12px">(40 lines)</text>
<rect x="20" y="170" width="164" height="40" stroke="black" stroke-width="2" fill="white"/>
<text x="25" y="185" style="font-family: Lucida Console, monospace; font-size: 12px">Household_select_rule</text>
<text x="25" y="202" style="font-family: Lucida Console, monospace; font-size: 12px">(40 lines)</text>
<rect x="20" y="220" width="171" height="40" stroke="black" stroke-width="2" fill="white"/>
<text x="25" y="235" style="font-family: Lucida Console, monospace; font-size: 12px">Household_EWA_learning</text>
<text x="25" y="252" style="font-family: Lucida Console, monospace; font-size: 12px">(40 lines)</text>
<rect x="20" y="270" width="234" height="40" stroke="black" stroke-width="2" fill="white"/>
<text x="25" y="285" style="font-family: Lucida Console, monospace; font-size: 12px">Household_retrieve_rule_details</text>
<text x="25" y="302" style="font-family: Lucida Console, monospace; font-size: 12px">(40 lines)</text>
<rect x="20" y="320" width="157" height="40" stroke="black" stroke-width="2" fill="white"/>
<text x="25" y="335" style="font-family: Lucida Console, monospace; font-size: 12px">Household_apply_rule</text>
<text x="25" y="352" style="font-family: Lucida Console, monospace; font-size: 12px">(40 lines)</text>
<line x1="0" y1="365" x2="120" y2="365" style="stroke:rgb(256,0,0);stroke-width:2"/>
<rect x="20" y="370" width="248" height="40" stroke="black" stroke-width="2" fill="white"/>
<text x="25" y="385" style="font-family: Lucida Console, monospace; font-size: 12px">Clearinghouse_read_order_messages</text>
<text x="25" y="402" style="font-family: Lucida Console, monospace; font-size: 12px">(40 lines)</text>
<line x1="0" y1="415" x2="120" y2="415" style="stroke:rgb(256,0,0);stroke-width:2"/>
<rect x="20" y="420" width="283" height="40" stroke="black" stroke-width="2" fill="white"/>
<text x="25" y="435" style="font-family: Lucida Console, monospace; font-size: 12px">FinancialAgent_update_classifiersystem</text>
<text x="25" y="452" style="font-family: Lucida Console, monospace; font-size: 12px">(40 lines)</text>
<rect x="313" y="420" width="255" height="40" stroke="black" stroke-width="2" fill="white"/>
<text x="318" y="435" style="font-family: Lucida Console, monospace; font-size: 12px">Household_read_transaction_message</text>
<text x="318" y="452" style="font-family: Lucida Console, monospace; font-size: 12px">(40 lines)</text>
<line x1="0" y1="465" x2="120" y2="465" style="stroke:rgb(256,0,0);stroke-width:2"/>

</svg>